# xmcd CD database file
#
# Track frame offsets:
#	182
#	12820
#	26395
#	40447
#	50745
#	68070
#	77432
#	87825
#	101030
#	112237
#	125942
#	136132
#	149112
#	161925
#	172575
#
# Disc length: 2458 seconds
#
# Revision: 0
# Processed by: cddbd v1.5.2PL0 Copyright (c) Steve Scherf et al.
# Submitted via: CDex 1.51
#
DISCID=d109980f
DTITLE=In Memora Of a memory - Greatest Hits
DYEAR=1900
DGENRE=Country
TTITLE0=Take This Job And Shove It 
TTITLE1=Slide Off Of Your Satin Sheets 
TTITLE2=Somebody Loves Me 
TTITLE3=Motel Time Again 
TTITLE4=In Memory Of A Memory
TTITLE5=Mr. Lovemaker
TTITLE6=A-11
TTITLE7=She`s All I Got 
TTITLE8=For A Minute There
TTITLE9=The Only Hell My Mama Ever Raised
TTITLE10=Loving You Beats All I Ever Seen
TTITLE11=Song And Dance Man
TTITLE12=Keep On Lovin' Me
TTITLE13=Jukebox Charlie
TTITLE14=Something About You I Love
EXTD=
EXTT0=
EXTT1=
EXTT2=
EXTT3=
EXTT4=
EXTT5=
EXTT6=
EXTT7=
EXTT8=
EXTT9=
EXTT10=
EXTT11=
EXTT12=
EXTT13=
EXTT14=
PLAYORDER=
